<svg width="20" height="20" viewBox="0 0 7 7" fill="none" xmlns="http://www.w3.org/2000/svg">
<path d="M2.92014 6.50458C2.84649 6.50458 2.77587 6.47533 2.72379 6.42326C2.67172 6.37118 2.64246 6.30056 2.64246 6.22691V5.3939H1.53178C1.3845 5.3939 1.24324 5.33539 1.1391 5.23125C1.03495 5.1271 0.97644 4.98585 0.97644 4.83856V1.50651C0.97644 1.1983 1.22634 0.951172 1.53178 0.951172H5.97451C6.1218 0.951172 6.26305 1.00968 6.3672 1.11383C6.47134 1.21797 6.52985 1.35923 6.52985 1.50651V4.83856C6.52985 4.98585 6.47134 5.1271 6.3672 5.23125C6.26305 5.33539 6.1218 5.3939 5.97451 5.3939H4.28072L3.25334 6.42406C3.19781 6.47682 3.12839 6.50458 3.05897 6.50458H2.92014ZM3.19781 4.83856V5.69379L4.05303 4.83856H5.97451V1.50651H1.53178V4.83856H3.19781ZM2.08712 2.33953H5.41917V2.89487H2.08712V2.33953ZM2.08712 3.45021H4.58616V4.00555H2.08712V3.45021Z" fill="black"/>
</svg>
