<svg width="800" height="800" viewBox="0 0 800 800" fill="none" xmlns="http://www.w3.org/2000/svg">
<g clip-path="url(#clip0_70_11)">
<path d="M400 800C620.914 800 800 620.914 800 400C800 179.086 620.914 0 400 0C179.086 0 0 179.086 0 400C0 620.914 179.086 800 400 800Z" fill="#A5FF9D"/>
<path d="M795.572 340.372L636.209 181.009L147.828 628.45L308.964 789.588C338.209 796.394 368.681 800 400 800C620.913 800 800 620.913 800 400C800 379.736 798.478 359.828 795.572 340.372Z" fill="#FF4444"/>
<path d="M673.306 218.106L610.158 154.958C598.619 143.419 580.159 142.65 567.702 153.191L251.806 420.491L225.811 550.466L201.391 574.886L147.825 628.452L225.811 654.447L253.383 626.875L277.803 602.455L407.778 576.459L675.07 260.562C685.614 248.105 684.845 229.645 673.306 218.106Z" fill="#FFEDB5"/>
<path d="M673.306 218.106L641.931 186.731L184.695 640.738L225.813 654.442L253.384 626.87L277.805 602.45L407.78 576.455L675.073 260.559C685.614 248.105 684.845 229.645 673.306 218.106Z" fill="#FEE187"/>
<path d="M407.777 576.458L251.806 420.487L567.702 153.194C580.159 142.652 598.619 143.419 610.158 154.961L673.306 218.109C684.845 229.648 685.614 248.108 675.073 260.566L407.777 576.458Z" fill="#FFC61B"/>
<path d="M673.306 218.106L641.931 186.731L328.886 497.567L407.778 576.459L675.072 260.564C685.614 248.105 684.845 229.645 673.306 218.106Z" fill="#FFCE43"/>
<path d="M147.828 628.45L225.813 654.444L251.806 628.45L199.817 576.458L147.828 628.45Z" fill="#FFC61B"/>
<path d="M184.695 640.737L225.813 654.444L251.806 628.45L224.536 601.18L184.695 640.737Z" fill="#FFCE43"/>
</g>
<defs>
<clipPath id="clip0_70_11">
<rect width="800" height="800" fill="white"/>
</clipPath>
</defs>
</svg>
