<svg width="20" height="20" viewBox="0 0 6 7" fill="none" xmlns="http://www.w3.org/2000/svg">
<path d="M3.54001 0.728516H1.31865C1.01043 0.728516 0.763306 0.978419 0.763306 1.28386V5.72659C0.763306 6.0348 1.01043 6.28193 1.31865 6.28193H4.65069C4.95891 6.28193 5.20604 6.0348 5.20604 5.72659V2.39454L3.54001 0.728516ZM4.65069 5.72659H1.31865V1.28386H3.26234V2.67221H4.65069V5.72659ZM2.42933 3.36639C2.42933 3.59685 2.24329 3.78289 2.01282 3.78289C1.78236 3.78289 1.59632 3.59685 1.59632 3.36639C1.59632 3.13592 1.78236 2.94988 2.01282 2.94988C2.24329 2.94988 2.42933 3.13592 2.42933 3.36639ZM4.09535 5.03241C4.09535 5.26288 3.90931 5.44892 3.67885 5.44892C3.44838 5.44892 3.26234 5.26288 3.26234 5.03241C3.26234 4.80194 3.44838 4.6159 3.67885 4.6159C3.90931 4.6159 4.09535 4.80194 4.09535 5.03241ZM4.09535 3.32474L1.97673 5.44892L1.59632 5.07406L3.7205 2.94988L4.09535 3.32474Z" fill="black"/>
</svg>
